<?xml version="1.0" encoding="UTF-8"?>
<svg id="Warstwa_1" xmlns="http://www.w3.org/2000/svg" version="1.1" xmlns:xlink="http://www.w3.org/1999/xlink" viewBox="0 0 1920 1080">
  <!-- Generator: Adobe Illustrator 29.2.1, SVG Export Plug-In . SVG Version: 2.1.0 Build 116)  -->
  <defs>
    <style>
      .st0 {
        fill: #0d0802;
      }

      .st1 {
        fill: url(#Nowy_wzorek);
      }

      .st2 {
        fill: none;
      }

      .st3 {
        fill: #79c2a0;
      }

      .st4 {
        clip-path: url(#clippath);
      }
    </style>
    <clipPath id="clippath">
      <rect class="st2" width="1920" height="1080"/>
    </clipPath>
    <pattern id="Nowy_wzorek" data-name="Nowy wzorek" x="0" y="0" width="93.5" height="53.9" patternTransform="translate(19705.8 20855.7) scale(3.8)" patternUnits="userSpaceOnUse" viewBox="0 0 93.5 53.9">
      <g>
        <rect class="st2" width="93.5" height="53.9"/>
        <g>
          <polygon class="st3" points="80.4 58.9 93.5 66.5 106.7 58.9 93.5 51.3 80.4 58.9"/>
          <polygon class="st3" points="91.6 32.9 78.5 40.5 78.5 55.6 91.6 48 91.6 32.9"/>
          <path class="st0" d="M75.4,46.5c-1,0-2-.4-3-1-3.5-2-4.7-6.5-2.7-10,2-3.5,6.5-4.7,10-2.7s1.7,1.3,2.3,2.1l.8-.5,6.1-3.5-11.9-6.8-13.5,7.8v15.6s11.9,6.8,11.9,6.8h0s0-7.9,0-7.9Z"/>
        </g>
        <g>
          <path class="st0" d="M28.7,73.4c-1,0-2-.4-3-1-3.5-2-4.7-6.5-2.7-10,2-3.5,6.5-4.7,10-2.7s1.7,1.3,2.3,2.1l.8-.5,6.1-3.5-11.9-6.8-13.5,7.8v15.6s11.9,6.8,11.9,6.8h0s0-7.9,0-7.9Z"/>
          <path class="st0" d="M58.2,61.8c.6-.8,1.4-1.6,2.3-2.1,3.5-2,8-.8,10,2.7s.8,8-2.7,10-1.9.8-2.9.9v.9s0,7,0,7l11.9-6.8v-15.6s-13.5-7.8-13.5-7.8l-11.9,6.8h0s6.8,3.9,6.8,3.9Z"/>
        </g>
        <g>
          <polygon class="st3" points="-13.1 58.9 0 66.5 13.1 58.9 0 51.3 -13.1 58.9"/>
          <polygon class="st3" points="15.1 55.6 15.1 40.5 2 32.9 2 48 15.1 55.6"/>
          <path class="st0" d="M11.4,34.8c.6-.8,1.4-1.6,2.3-2.1,3.5-2,8-.8,10,2.7s.8,8-2.7,10-1.9.8-2.9.9v.9s0,7,0,7l11.9-6.8v-15.6s-13.5-7.8-13.5-7.8l-11.9,6.8h0s6.8,3.9,6.8,3.9Z"/>
        </g>
        <g>
          <polygon class="st3" points="80.4 5 93.5 12.6 106.7 5 93.5 -2.5 80.4 5"/>
          <path class="st0" d="M100.2,12.2c.4.9.7,2,.7,3.1,0,4.1-3.3,7.3-7.3,7.3s-7.3-3.3-7.3-7.3.2-2.1.7-3l-.8-.5-6.1-3.5v13.7l13.5,7.8,13.5-7.8v-13.7h0s-6.8,3.9-6.8,3.9Z"/>
          <polygon class="st3" points="91.6 -21 78.5 -13.4 78.5 1.8 91.6 -5.8 91.6 -21"/>
          <path class="st0" d="M75.4-7.4c-1,0-2-.4-3-1-3.5-2-4.7-6.5-2.7-10,2-3.5,6.5-4.7,10-2.7s1.7,1.3,2.3,2.1l.8-.5,6.1-3.5-11.9-6.8-13.5,7.8V-6.4S75.4.5,75.4.5h0s0-7.9,0-7.9Z"/>
        </g>
        <g>
          <polygon class="st3" points="33.6 32 46.8 39.5 59.9 32 46.8 24.4 33.6 32"/>
          <path class="st0" d="M53.5,39.2c.4.9.7,2,.7,3.1,0,4.1-3.3,7.3-7.3,7.3s-7.3-3.3-7.3-7.3.2-2.1.7-3l-.8-.5-6.1-3.5v13.7l13.5,7.8,13.5-7.8v-13.7h0s-6.8,3.9-6.8,3.9Z"/>
          <polygon class="st3" points="44.8 6 31.7 13.5 31.7 28.7 44.8 21.1 44.8 6"/>
          <path class="st0" d="M28.7,19.5c-1,0-2-.4-3-1-3.5-2-4.7-6.5-2.7-10,2-3.5,6.5-4.7,10-2.7s1.7,1.3,2.3,2.1l.8-.5,6.1-3.5-11.9-6.8-13.5,7.8v15.6s11.9,6.8,11.9,6.8h0s0-7.9,0-7.9Z"/>
          <polygon class="st3" points="61.9 28.7 61.9 13.5 48.7 6 48.7 21.1 61.9 28.7"/>
          <path class="st0" d="M58.2,7.9c.6-.8,1.4-1.6,2.3-2.1,3.5-2,8-.8,10,2.7s.8,8-2.7,10-1.9.8-2.9.9v.9s0,7,0,7l11.9-6.8V4.9s-13.5-7.8-13.5-7.8l-11.9,6.8h0s6.8,3.9,6.8,3.9Z"/>
        </g>
        <g>
          <polygon class="st3" points="-13.1 5 0 12.6 13.1 5 0 -2.5 -13.1 5"/>
          <path class="st0" d="M6.7,12.2c.4.9.7,2,.7,3.1,0,4.1-3.3,7.3-7.3,7.3s-7.3-3.3-7.3-7.3.2-2.1.7-3l-.8-.5-6.1-3.5v13.7L0,29.8l13.5-7.8v-13.7h0s-6.8,3.9-6.8,3.9Z"/>
          <polygon class="st3" points="15.1 1.8 15.1 -13.4 2 -21 2 -5.8 15.1 1.8"/>
          <path class="st0" d="M11.4-19c.6-.8,1.4-1.6,2.3-2.1,3.5-2,8-.8,10,2.7s.8,8-2.7,10-1.9.8-2.9.9v.9s0,7,0,7l11.9-6.8v-15.6s-13.5-7.8-13.5-7.8l-11.9,6.8h0s6.8,3.9,6.8,3.9Z"/>
        </g>
        <path class="st0" d="M53.5-14.7c.4.9.7,2,.7,3.1,0,4.1-3.3,7.3-7.3,7.3s-7.3-3.3-7.3-7.3.2-2.1.7-3l-.8-.5-6.1-3.5V-4.9l13.5,7.8,13.5-7.8v-13.7h0s-6.8,3.9-6.8,3.9Z"/>
      </g>
    </pattern>
  </defs>
  <g class="st4">
    <rect class="st1" y="-417.6" width="3426.4" height="1927.3"/>
  </g>
</svg>